<?xml version="1.0" encoding="UTF-8"?>
<!DOCTYPE svg PUBLIC "-//W3C//DTD SVG 1.1//EN" "http://www.w3.org/Graphics/SVG/1.1/DTD/svg11.dtd">
<svg xmlns="http://www.w3.org/2000/svg" version="1.1" width="606px" height="118px" style="shape-rendering:geometricPrecision; text-rendering:geometricPrecision; image-rendering:optimizeQuality; fill-rule:evenodd; clip-rule:evenodd" xmlns:xlink="http://www.w3.org/1999/xlink">
<g><path style="opacity:0.743" fill="#f0eff0" d="M 169.5,-0.5 C 177.833,-0.5 186.167,-0.5 194.5,-0.5C 195.878,0.234419 197.378,0.901085 199,1.5C 206,26.1667 213,50.8333 220,75.5C 227.14,50.2759 233.973,24.9425 240.5,-0.5C 247.5,-0.5 254.5,-0.5 261.5,-0.5C 251.375,37.8774 241.042,76.2107 230.5,114.5C 220.856,115.498 211.19,115.832 201.5,115.5C 195.362,92.2557 188.528,69.2557 181,46.5C 174.34,69.4745 167.84,92.4745 161.5,115.5C 154.5,115.5 147.5,115.5 140.5,115.5C 149.184,82.0984 158.184,48.765 167.5,15.5C 167.333,14.8333 167.167,14.1667 167,13.5C 149.454,20.5912 143.121,33.2578 148,51.5C 149.308,53.6414 150.808,55.6414 152.5,57.5C 126.177,59.217 118.343,47.8837 129,23.5C 139.539,10.4815 153.039,2.48149 169.5,-0.5 Z"/></g>
<g><path style="opacity:0.849" fill="#f5f4f5" d="M -0.5,0.5 C 38.5,0.5 77.5,0.5 116.5,0.5C 116.5,39.5 116.5,78.5 116.5,117.5C 77.5,117.5 38.5,117.5 -0.5,117.5C -0.5,78.5 -0.5,39.5 -0.5,0.5 Z"/></g>
<g><path style="opacity:1" fill="#6b6a70" d="M 171.5,1.5 C 180.278,1.08412 188.944,1.75079 197.5,3.5C 205.096,31.1245 212.596,58.7912 220,86.5C 227.782,58.7064 234.949,30.7064 241.5,2.5C 246.833,2.5 252.167,2.5 257.5,2.5C 248.214,39.5976 238.547,76.5976 228.5,113.5C 220.167,113.5 211.833,113.5 203.5,113.5C 196.77,87.5756 189.27,61.9089 181,36.5C 173.317,62.0464 166.15,87.7131 159.5,113.5C 154.167,113.5 148.833,113.5 143.5,113.5C 152.517,79.436 161.85,45.436 171.5,11.5C 171.167,10.8333 170.833,10.1667 170.5,9.5C 147.426,16.654 139.426,31.654 146.5,54.5C 130.897,55.3835 124.73,48.0502 128,32.5C 133.602,19.5679 143.102,10.7346 156.5,6C 161.577,4.32004 166.577,2.82004 171.5,1.5 Z"/></g>
<g><path style="opacity:1" fill="#6a696f" d="M 1.5,3.5 C 19.1667,3.5 36.8333,3.5 54.5,3.5C 54.5,40.8333 54.5,78.1667 54.5,115.5C 36.8333,115.5 19.1667,115.5 1.5,115.5C 1.5,78.1667 1.5,40.8333 1.5,3.5 Z"/></g>
<g><path style="opacity:1" fill="#d1d0d2" d="M 1.5,3.5 C 38.8333,2.16667 76.1667,2.16667 113.5,3.5C 95.5,3.5 77.5,3.5 59.5,3.5C 59.5,40.8333 59.5,78.1667 59.5,115.5C 58.5015,78.3371 58.1682,41.0037 58.5,3.5C 57.5,3.5 56.5,3.5 55.5,3.5C 55.8318,41.0037 55.4985,78.3371 54.5,115.5C 54.5,78.1667 54.5,40.8333 54.5,3.5C 36.8333,3.5 19.1667,3.5 1.5,3.5 Z"/></g>
<g><path style="opacity:1" fill="#69696e" d="M 113.5,3.5 C 113.5,40.8333 113.5,78.1667 113.5,115.5C 95.5,115.5 77.5,115.5 59.5,115.5C 59.5,78.1667 59.5,40.8333 59.5,3.5C 77.5,3.5 95.5,3.5 113.5,3.5 Z"/></g>
<g><path style="opacity:0.745" fill="#f1f0f1" d="M 605.5,37.5 C 605.5,39.1667 605.5,40.8333 605.5,42.5C 600.236,59.5479 595.569,76.8812 591.5,94.5C 591.57,95.7716 591.903,96.9383 592.5,98C 596.209,99.8315 599.876,99.6648 603.5,97.5C 598.912,116.123 587.579,121.29 569.5,113C 566.93,110.933 564.93,108.433 563.5,105.5C 551.65,116.688 537.983,119.521 522.5,114C 518.529,111.858 515.195,109.024 512.5,105.5C 502.187,114.546 490.187,118.046 476.5,116C 472.793,115.064 469.626,113.231 467,110.5C 464.575,106.651 462.408,102.651 460.5,98.5C 445.422,113.582 427.422,119.082 406.5,115C 401.08,113.212 397.247,109.712 395,104.5C 385.383,114.868 373.55,118.702 359.5,116C 352.994,114.341 347.827,110.841 344,105.5C 331.808,116.34 317.974,119.173 302.5,114C 299.6,111.603 297.267,108.77 295.5,105.5C 283.499,117.024 269.832,119.524 254.5,113C 251.131,110.635 248.964,107.468 248,103.5C 247.261,97.4422 247.594,91.4422 249,85.5C 253.483,69.567 257.65,53.567 261.5,37.5C 271.5,37.5 281.5,37.5 291.5,37.5C 287.073,56.3735 282.407,75.2069 277.5,94C 277.491,96.8184 278.825,98.6517 281.5,99.5C 288.328,98.1748 292.828,94.1748 295,87.5C 299.485,70.8925 303.652,54.2258 307.5,37.5C 317.855,37.1681 328.188,37.5014 338.5,38.5C 333.501,57.161 328.501,75.8277 323.5,94.5C 324.409,97.6603 326.575,99.327 330,99.5C 334.114,98.7775 337.447,96.7775 340,93.5C 341.183,74.6363 348.683,58.8029 362.5,46C 376.054,36.0436 390.554,34.2103 406,40.5C 406.483,39.552 406.649,38.552 406.5,37.5C 416.839,37.3335 427.172,37.5002 437.5,38C 432.351,56.5949 427.351,75.2616 422.5,94C 423.488,97.7341 425.988,99.5674 430,99.5C 441.033,97.9037 450.199,93.0703 457.5,85C 453.91,69.4738 450.243,53.9738 446.5,38.5C 456.478,37.5015 466.478,37.1681 476.5,37.5C 478.323,47.6134 480.656,57.6134 483.5,67.5C 490.866,62.4859 495.866,55.8193 498.5,47.5C 489.182,48.0155 485.349,43.6822 487,34.5C 487.833,32.3333 489.333,30.8333 491.5,30C 509.169,27.4259 515.669,34.9259 511,52.5C 504.799,63.038 496.799,72.038 487,79.5C 486.907,85.4635 488.24,91.1302 491,96.5C 498.582,100.52 504.915,98.8534 510,91.5C 510.857,65.3373 523.357,47.504 547.5,38C 553.785,36.6446 560.118,36.3113 566.5,37C 569.624,37.4791 572.457,38.6457 575,40.5C 575.483,39.552 575.649,38.552 575.5,37.5C 585.5,37.5 595.5,37.5 605.5,37.5 Z M 391.5,49.5 C 394.518,49.3354 397.518,49.502 400.5,50C 402.396,51.8083 402.896,53.975 402,56.5C 399.131,68.3125 395.797,79.9792 392,91.5C 389.015,95.9797 384.849,98.6463 379.5,99.5C 376.812,98.9951 374.645,97.6618 373,95.5C 371.075,76.7489 377.242,61.4156 391.5,49.5 Z M 560.5,49.5 C 563.518,49.3354 566.518,49.502 569.5,50C 570.804,50.804 571.471,51.9707 571.5,53.5C 568.638,65.5846 565.472,77.5846 562,89.5C 559.046,94.9585 554.546,98.2918 548.5,99.5C 543.023,98.1848 540.356,94.6848 540.5,89C 541.54,72.7514 548.206,59.5848 560.5,49.5 Z"/></g>
<g><path style="opacity:1" fill="#6c6b71" d="M 450.5,41.5 C 458.316,40.5076 466.316,40.1743 474.5,40.5C 476.839,51.5227 479.339,62.5227 482,73.5C 489.123,67.3831 495.123,60.3831 500,52.5C 501.079,49.9373 501.579,47.2706 501.5,44.5C 492.425,46.7519 488.592,43.4186 490,34.5C 494.447,31.0913 499.281,30.5913 504.5,33C 511.123,38.3219 512.29,44.8219 508,52.5C 501.415,62.4201 493.415,71.0868 484,78.5C 484.399,85.4311 486.066,92.0978 489,98.5C 496.864,103.128 504.031,102.128 510.5,95.5C 512.569,100.485 511.236,104.318 506.5,107C 497.828,112.168 488.494,114.501 478.5,114C 474.793,113.064 471.626,111.231 469,108.5C 466.02,103.719 463.52,98.7189 461.5,93.5C 448.019,108.05 431.353,114.884 411.5,114C 403.425,112.222 398.258,107.389 396,99.5C 382.645,115.196 367.145,118.03 349.5,108C 342.833,97.8826 341.666,87.0493 346,75.5C 354.783,49.7098 372.617,37.8765 399.5,40C 404.617,41.7317 406.45,45.2317 405,50.5C 399.694,45.6873 393.861,45.1873 387.5,49C 374.174,61.6401 368.341,77.1401 370,95.5C 372.919,101.025 377.419,102.858 383.5,101C 388.525,99.3109 392.359,96.1442 395,91.5C 400.044,74.6165 404.711,57.6165 409,40.5C 417.081,39.5175 425.248,39.1842 433.5,39.5C 429.49,55.873 425.323,72.2063 421,88.5C 419.026,100.132 423.859,104.298 435.5,101C 444.878,98.6055 453.044,94.1055 460,87.5C 457.162,72.1541 453.996,56.8207 450.5,41.5 Z M 391.5,49.5 C 377.242,61.4156 371.075,76.7489 373,95.5C 374.645,97.6618 376.812,98.9951 379.5,99.5C 384.849,98.6463 389.015,95.9797 392,91.5C 395.797,79.9792 399.131,68.3125 402,56.5C 402.896,53.975 402.396,51.8083 400.5,50C 397.518,49.502 394.518,49.3354 391.5,49.5 Z"/></g>
<g><path style="opacity:1" fill="#a1a0a5" d="M 310.5,40.5 C 318.676,39.1791 327.009,39.1791 335.5,40.5C 335.376,41.1067 335.043,41.44 334.5,41.5C 326.684,40.5076 318.684,40.1743 310.5,40.5 Z"/></g>
<g><path style="opacity:1" fill="#a1a0a5" d="M 474.5,40.5 C 466.316,40.1743 458.316,40.5076 450.5,41.5C 449.957,41.44 449.624,41.1067 449.5,40.5C 457.991,39.1791 466.324,39.1791 474.5,40.5 Z"/></g>
<g><path style="opacity:1" fill="#6c6b71" d="M 574.5,50.5 C 576.318,47.1558 577.318,43.4891 577.5,39.5C 585.833,39.5 594.167,39.5 602.5,39.5C 598.123,57.9159 593.457,76.2492 588.5,94.5C 588.486,96.5925 589.152,98.4259 590.5,100C 593.444,100.97 596.444,101.804 599.5,102.5C 593.101,114.861 583.767,117.695 571.5,111C 567.908,107.984 565.742,104.151 565,99.5C 556.065,110.554 544.565,115.387 530.5,114C 516.129,109.447 510.296,99.614 513,84.5C 516.403,62.4345 528.569,47.6012 549.5,40C 555.833,39.3333 562.167,39.3333 568.5,40C 573.451,41.728 575.451,45.228 574.5,50.5 Z M 560.5,49.5 C 548.206,59.5848 541.54,72.7514 540.5,89C 540.356,94.6848 543.023,98.1848 548.5,99.5C 554.546,98.2918 559.046,94.9585 562,89.5C 565.472,77.5846 568.638,65.5846 571.5,53.5C 571.471,51.9707 570.804,50.804 569.5,50C 566.518,49.502 563.518,49.3354 560.5,49.5 Z"/></g>
<g><path style="opacity:1" fill="#6c6b71" d="M 310.5,40.5 C 318.684,40.1743 326.684,40.5076 334.5,41.5C 330.493,57.1917 326.327,72.8584 322,88.5C 320.58,101.843 326.08,105.343 338.5,99C 339.667,97.8333 340.833,96.6667 342,95.5C 342.614,97.8786 342.947,100.212 343,102.5C 331.842,112.832 319.008,115.998 304.5,112C 300.051,108.603 297.551,104.103 297,98.5C 286.689,113.249 273.189,117.416 256.5,111C 252.075,107.399 249.742,102.733 249.5,97C 254.246,77.851 258.912,58.6844 263.5,39.5C 271.86,39.1688 280.193,39.5021 288.5,40.5C 284.179,56.1176 280.012,71.7843 276,87.5C 273.714,101.78 278.881,105.28 291.5,98C 293.727,95.4359 295.561,92.6026 297,89.5C 301.576,73.0661 306.076,56.7328 310.5,40.5 Z"/></g>
<g><path style="opacity:0.737" fill="#f1f0f1" d="M 574.5,50.5 C 571.449,65.0367 567.616,79.37 563,93.5C 557.701,100.712 550.867,102.878 542.5,100C 540.951,98.786 539.785,97.286 539,95.5C 537.337,77.1518 543.171,61.6518 556.5,49C 562.913,45.3872 568.913,45.8872 574.5,50.5 Z M 560.5,49.5 C 548.206,59.5848 541.54,72.7514 540.5,89C 540.356,94.6848 543.023,98.1848 548.5,99.5C 554.546,98.2918 559.046,94.9585 562,89.5C 565.472,77.5846 568.638,65.5846 571.5,53.5C 571.471,51.9707 570.804,50.804 569.5,50C 566.518,49.502 563.518,49.3354 560.5,49.5 Z"/></g>
</svg>
