<?xml version="1.0" encoding="UTF-8"?>
<!DOCTYPE svg PUBLIC "-//W3C//DTD SVG 1.1//EN" "http://www.w3.org/Graphics/SVG/1.1/DTD/svg11.dtd">
<svg xmlns="http://www.w3.org/2000/svg" version="1.1" width="632px" height="478px" style="shape-rendering:geometricPrecision; text-rendering:geometricPrecision; image-rendering:optimizeQuality; fill-rule:evenodd; clip-rule:evenodd" xmlns:xlink="http://www.w3.org/1999/xlink">
<g><path style="opacity:1" fill="#fefffe" d="M 280.5,0.5 C 303.956,0.140257 326.956,3.14026 349.5,9.5C 380.019,120.562 410.853,231.562 442,342.5C 471.464,229.979 500.297,117.312 528.5,4.5C 554.167,4.5 579.833,4.5 605.5,4.5C 563.324,160.869 520.991,317.202 478.5,473.5C 442.173,474.5 405.839,474.833 369.5,474.5C 339.978,371.097 310.144,267.764 280,164.5C 250.871,267.554 221.538,370.554 192,473.5C 166.899,474.827 141.732,474.827 116.5,473.5C 156.076,330.952 194.91,188.285 233,45.5C 210.525,51.8687 190.025,62.0354 171.5,76C 137.186,105.252 122.686,142.418 128,187.5C 129.829,205.314 136.662,220.814 148.5,234C 123.217,235.743 99.2174,231.077 76.5,220C 58.4561,207.752 49.4561,190.585 49.5,168.5C 50.0542,137.679 60.2208,110.346 80,86.5C 107.264,54.9348 140.764,32.4348 180.5,19C 213.035,7.74658 246.369,1.57992 280.5,0.5 Z"/></g>
<g><path style="opacity:1" fill="#3c3c41" d="M 615.5,237.5 C 616.833,238.167 616.833,238.167 615.5,237.5 Z"/></g>
</svg>
